<mxfile host="app.diagrams.net" agent="Mozilla/5.0 (Windows NT 10.0; Win64; x64; rv:132.0) Gecko/20100101 Firefox/132.0" version="24.8.4">
  <diagram name="Sayfa -1" id="Qmo8c-_sBwXkGCvEZV47">
    <mxGraphModel dx="794" dy="502" grid="1" gridSize="10" guides="1" tooltips="1" connect="1" arrows="1" fold="1" page="1" pageScale="1" pageWidth="827" pageHeight="1169" math="0" shadow="0">
      <root>
        <mxCell id="0" />
        <mxCell id="1" parent="0" />
        <mxCell id="X72S2jsAQp75nGiJENON-3" value="" style="edgeStyle=orthogonalEdgeStyle;rounded=0;orthogonalLoop=1;jettySize=auto;html=1;" edge="1" parent="1" source="X72S2jsAQp75nGiJENON-1" target="X72S2jsAQp75nGiJENON-2">
          <mxGeometry relative="1" as="geometry" />
        </mxCell>
        <mxCell id="X72S2jsAQp75nGiJENON-1" value="&lt;div&gt;START&lt;/div&gt;" style="ellipse;whiteSpace=wrap;html=1;" vertex="1" parent="1">
          <mxGeometry x="380" y="20" width="120" height="80" as="geometry" />
        </mxCell>
        <mxCell id="X72S2jsAQp75nGiJENON-5" value="" style="edgeStyle=orthogonalEdgeStyle;rounded=0;orthogonalLoop=1;jettySize=auto;html=1;" edge="1" parent="1" source="X72S2jsAQp75nGiJENON-2" target="X72S2jsAQp75nGiJENON-4">
          <mxGeometry relative="1" as="geometry" />
        </mxCell>
        <mxCell id="X72S2jsAQp75nGiJENON-2" value="&#39;Üçgenin iç köşe noktalarını girin.&#39;" style="shape=document;whiteSpace=wrap;html=1;boundedLbl=1;" vertex="1" parent="1">
          <mxGeometry x="380" y="150" width="120" height="80" as="geometry" />
        </mxCell>
        <mxCell id="X72S2jsAQp75nGiJENON-7" value="" style="edgeStyle=orthogonalEdgeStyle;rounded=0;orthogonalLoop=1;jettySize=auto;html=1;" edge="1" parent="1" source="X72S2jsAQp75nGiJENON-4" target="X72S2jsAQp75nGiJENON-6">
          <mxGeometry relative="1" as="geometry" />
        </mxCell>
        <mxCell id="X72S2jsAQp75nGiJENON-4" value="&lt;div&gt;ax, ay,&amp;nbsp;&lt;/div&gt;&lt;div&gt;bx, by,&lt;/div&gt;&lt;div&gt;cx, cy&lt;br&gt;&lt;/div&gt;" style="shape=card;whiteSpace=wrap;html=1;" vertex="1" parent="1">
          <mxGeometry x="400" y="270" width="80" height="60" as="geometry" />
        </mxCell>
        <mxCell id="X72S2jsAQp75nGiJENON-9" value="" style="edgeStyle=orthogonalEdgeStyle;rounded=0;orthogonalLoop=1;jettySize=auto;html=1;" edge="1" parent="1" source="X72S2jsAQp75nGiJENON-6" target="X72S2jsAQp75nGiJENON-8">
          <mxGeometry relative="1" as="geometry" />
        </mxCell>
        <mxCell id="X72S2jsAQp75nGiJENON-6" value="&lt;div&gt;K_kenarkare = (bx - ax)*(bx-ax) - (by - ay)*(by -ay)&lt;/div&gt;&lt;div&gt;L_kenarkare = (cx - bx)*(cx-bx) - (cy - by)*(cy -by)&lt;/div&gt;&lt;div&gt;M_kenarkare = (cx - ax)*(cx-ax) - (cy - ay)*(cy -ay)&lt;/div&gt;" style="rounded=0;whiteSpace=wrap;html=1;" vertex="1" parent="1">
          <mxGeometry x="265" y="390" width="350" height="130" as="geometry" />
        </mxCell>
        <mxCell id="X72S2jsAQp75nGiJENON-10" value="" style="endArrow=classic;html=1;rounded=0;entryX=0.5;entryY=0;entryDx=0;entryDy=0;" edge="1" parent="1" target="X72S2jsAQp75nGiJENON-11">
          <mxGeometry width="50" height="50" relative="1" as="geometry">
            <mxPoint x="530" y="610" as="sourcePoint" />
            <mxPoint x="580" y="670" as="targetPoint" />
            <Array as="points">
              <mxPoint x="580" y="610" />
            </Array>
          </mxGeometry>
        </mxCell>
        <mxCell id="X72S2jsAQp75nGiJENON-11" value="&lt;div&gt;temp = L&lt;/div&gt;&lt;div&gt;L = K&lt;/div&gt;&lt;div&gt;K = temp&lt;br&gt;&lt;/div&gt;" style="rounded=0;whiteSpace=wrap;html=1;" vertex="1" parent="1">
          <mxGeometry x="520" y="680" width="120" height="60" as="geometry" />
        </mxCell>
        <mxCell id="X72S2jsAQp75nGiJENON-13" value="" style="endArrow=classic;html=1;rounded=0;" edge="1" parent="1">
          <mxGeometry width="50" height="50" relative="1" as="geometry">
            <mxPoint x="350" y="610" as="sourcePoint" />
            <mxPoint x="440" y="800" as="targetPoint" />
            <Array as="points">
              <mxPoint x="300" y="610" />
              <mxPoint x="300" y="800" />
            </Array>
          </mxGeometry>
        </mxCell>
        <mxCell id="X72S2jsAQp75nGiJENON-14" value="" style="endArrow=classic;html=1;rounded=0;" edge="1" parent="1" target="X72S2jsAQp75nGiJENON-8">
          <mxGeometry width="50" height="50" relative="1" as="geometry">
            <mxPoint x="370" y="640" as="sourcePoint" />
            <mxPoint x="420" y="590" as="targetPoint" />
          </mxGeometry>
        </mxCell>
        <mxCell id="X72S2jsAQp75nGiJENON-8" value="K_kenarkare &amp;gt; L_kenarkare" style="shape=hexagon;perimeter=hexagonPerimeter2;whiteSpace=wrap;html=1;fixedSize=1;" vertex="1" parent="1">
          <mxGeometry x="350" y="570" width="180" height="80" as="geometry" />
        </mxCell>
        <mxCell id="X72S2jsAQp75nGiJENON-15" value="" style="endArrow=classic;html=1;rounded=0;" edge="1" parent="1">
          <mxGeometry width="50" height="50" relative="1" as="geometry">
            <mxPoint x="579.5" y="740" as="sourcePoint" />
            <mxPoint x="440" y="800" as="targetPoint" />
            <Array as="points">
              <mxPoint x="580" y="800" />
            </Array>
          </mxGeometry>
        </mxCell>
        <mxCell id="X72S2jsAQp75nGiJENON-17" value="" style="endArrow=classic;html=1;rounded=0;" edge="1" parent="1">
          <mxGeometry width="50" height="50" relative="1" as="geometry">
            <mxPoint x="439.5" y="800" as="sourcePoint" />
            <mxPoint x="439.5" y="830" as="targetPoint" />
          </mxGeometry>
        </mxCell>
        <mxCell id="X72S2jsAQp75nGiJENON-18" value="" style="endArrow=classic;html=1;rounded=0;entryX=0.5;entryY=0;entryDx=0;entryDy=0;" edge="1" parent="1" target="X72S2jsAQp75nGiJENON-19">
          <mxGeometry width="50" height="50" relative="1" as="geometry">
            <mxPoint x="530" y="870" as="sourcePoint" />
            <mxPoint x="580" y="930" as="targetPoint" />
            <Array as="points">
              <mxPoint x="580" y="870" />
            </Array>
          </mxGeometry>
        </mxCell>
        <mxCell id="X72S2jsAQp75nGiJENON-19" value="&lt;div&gt;temp = M&lt;br&gt;&lt;/div&gt;&lt;div&gt;M = L&lt;br&gt;&lt;/div&gt;&lt;div&gt;L = temp&lt;br&gt;&lt;/div&gt;" style="rounded=0;whiteSpace=wrap;html=1;" vertex="1" parent="1">
          <mxGeometry x="520" y="940" width="120" height="60" as="geometry" />
        </mxCell>
        <mxCell id="X72S2jsAQp75nGiJENON-20" value="" style="endArrow=classic;html=1;rounded=0;" edge="1" parent="1">
          <mxGeometry width="50" height="50" relative="1" as="geometry">
            <mxPoint x="350" y="870" as="sourcePoint" />
            <mxPoint x="440" y="1060" as="targetPoint" />
            <Array as="points">
              <mxPoint x="300" y="870" />
              <mxPoint x="300" y="1060" />
            </Array>
          </mxGeometry>
        </mxCell>
        <mxCell id="X72S2jsAQp75nGiJENON-21" value="" style="endArrow=classic;html=1;rounded=0;" edge="1" parent="1" target="X72S2jsAQp75nGiJENON-22">
          <mxGeometry width="50" height="50" relative="1" as="geometry">
            <mxPoint x="370" y="900" as="sourcePoint" />
            <mxPoint x="420" y="850" as="targetPoint" />
          </mxGeometry>
        </mxCell>
        <mxCell id="X72S2jsAQp75nGiJENON-22" value="L_kenarkare &amp;gt; M_kenarkare" style="shape=hexagon;perimeter=hexagonPerimeter2;whiteSpace=wrap;html=1;fixedSize=1;" vertex="1" parent="1">
          <mxGeometry x="350" y="830" width="180" height="80" as="geometry" />
        </mxCell>
        <mxCell id="X72S2jsAQp75nGiJENON-23" value="" style="endArrow=classic;html=1;rounded=0;" edge="1" parent="1">
          <mxGeometry width="50" height="50" relative="1" as="geometry">
            <mxPoint x="579.5" y="1000" as="sourcePoint" />
            <mxPoint x="440" y="1060" as="targetPoint" />
            <Array as="points">
              <mxPoint x="580" y="1060" />
            </Array>
          </mxGeometry>
        </mxCell>
        <mxCell id="X72S2jsAQp75nGiJENON-24" value="" style="endArrow=classic;html=1;rounded=0;" edge="1" parent="1">
          <mxGeometry width="50" height="50" relative="1" as="geometry">
            <mxPoint x="439.5" y="1060" as="sourcePoint" />
            <mxPoint x="439.5" y="1090" as="targetPoint" />
          </mxGeometry>
        </mxCell>
        <mxCell id="X72S2jsAQp75nGiJENON-25" value="" style="endArrow=classic;html=1;rounded=0;entryX=0.5;entryY=0;entryDx=0;entryDy=0;" edge="1" parent="1" target="X72S2jsAQp75nGiJENON-26">
          <mxGeometry width="50" height="50" relative="1" as="geometry">
            <mxPoint x="530" y="1130" as="sourcePoint" />
            <mxPoint x="580" y="1190" as="targetPoint" />
            <Array as="points">
              <mxPoint x="580" y="1130" />
            </Array>
          </mxGeometry>
        </mxCell>
        <mxCell id="X72S2jsAQp75nGiJENON-26" value="&lt;div&gt;temp = L&lt;/div&gt;&lt;div&gt;L = K&lt;/div&gt;&lt;div&gt;K = temp&lt;br&gt;&lt;/div&gt;" style="rounded=0;whiteSpace=wrap;html=1;" vertex="1" parent="1">
          <mxGeometry x="520" y="1200" width="120" height="60" as="geometry" />
        </mxCell>
        <mxCell id="X72S2jsAQp75nGiJENON-27" value="" style="endArrow=classic;html=1;rounded=0;" edge="1" parent="1">
          <mxGeometry width="50" height="50" relative="1" as="geometry">
            <mxPoint x="350" y="1130" as="sourcePoint" />
            <mxPoint x="440" y="1320" as="targetPoint" />
            <Array as="points">
              <mxPoint x="300" y="1130" />
              <mxPoint x="300" y="1320" />
            </Array>
          </mxGeometry>
        </mxCell>
        <mxCell id="X72S2jsAQp75nGiJENON-28" value="" style="endArrow=classic;html=1;rounded=0;" edge="1" parent="1" target="X72S2jsAQp75nGiJENON-29">
          <mxGeometry width="50" height="50" relative="1" as="geometry">
            <mxPoint x="370" y="1160" as="sourcePoint" />
            <mxPoint x="420" y="1110" as="targetPoint" />
          </mxGeometry>
        </mxCell>
        <mxCell id="X72S2jsAQp75nGiJENON-29" value="K_kenarkare &amp;gt; L_kenarkare" style="shape=hexagon;perimeter=hexagonPerimeter2;whiteSpace=wrap;html=1;fixedSize=1;" vertex="1" parent="1">
          <mxGeometry x="350" y="1090" width="180" height="80" as="geometry" />
        </mxCell>
        <mxCell id="X72S2jsAQp75nGiJENON-30" value="" style="endArrow=classic;html=1;rounded=0;" edge="1" parent="1">
          <mxGeometry width="50" height="50" relative="1" as="geometry">
            <mxPoint x="579.5" y="1260" as="sourcePoint" />
            <mxPoint x="440" y="1320" as="targetPoint" />
            <Array as="points">
              <mxPoint x="580" y="1320" />
            </Array>
          </mxGeometry>
        </mxCell>
        <mxCell id="X72S2jsAQp75nGiJENON-31" value="" style="endArrow=classic;html=1;rounded=0;" edge="1" parent="1">
          <mxGeometry width="50" height="50" relative="1" as="geometry">
            <mxPoint x="439.5" y="1320" as="sourcePoint" />
            <mxPoint x="439.5" y="1350" as="targetPoint" />
          </mxGeometry>
        </mxCell>
        <mxCell id="X72S2jsAQp75nGiJENON-32" value="" style="endArrow=classic;html=1;rounded=0;entryX=0.5;entryY=0;entryDx=0;entryDy=0;" edge="1" parent="1">
          <mxGeometry width="50" height="50" relative="1" as="geometry">
            <mxPoint x="530" y="1390" as="sourcePoint" />
            <mxPoint x="580" y="1460" as="targetPoint" />
            <Array as="points">
              <mxPoint x="580" y="1390" />
            </Array>
          </mxGeometry>
        </mxCell>
        <mxCell id="X72S2jsAQp75nGiJENON-34" value="" style="endArrow=classic;html=1;rounded=0;entryX=0.5;entryY=0;entryDx=0;entryDy=0;" edge="1" parent="1" target="X72S2jsAQp75nGiJENON-40">
          <mxGeometry width="50" height="50" relative="1" as="geometry">
            <mxPoint x="350" y="1390" as="sourcePoint" />
            <mxPoint x="300" y="1450" as="targetPoint" />
            <Array as="points">
              <mxPoint x="300" y="1390" />
            </Array>
          </mxGeometry>
        </mxCell>
        <mxCell id="X72S2jsAQp75nGiJENON-35" value="" style="endArrow=classic;html=1;rounded=0;" edge="1" parent="1" target="X72S2jsAQp75nGiJENON-36">
          <mxGeometry width="50" height="50" relative="1" as="geometry">
            <mxPoint x="370" y="1420" as="sourcePoint" />
            <mxPoint x="420" y="1370" as="targetPoint" />
          </mxGeometry>
        </mxCell>
        <mxCell id="X72S2jsAQp75nGiJENON-36" value="K*K + L*L = M*M" style="shape=hexagon;perimeter=hexagonPerimeter2;whiteSpace=wrap;html=1;fixedSize=1;" vertex="1" parent="1">
          <mxGeometry x="350" y="1350" width="180" height="80" as="geometry" />
        </mxCell>
        <mxCell id="X72S2jsAQp75nGiJENON-37" value="" style="endArrow=classic;html=1;rounded=0;" edge="1" parent="1">
          <mxGeometry width="50" height="50" relative="1" as="geometry">
            <mxPoint x="579.5" y="1520" as="sourcePoint" />
            <mxPoint x="440" y="1580" as="targetPoint" />
            <Array as="points">
              <mxPoint x="580" y="1580" />
            </Array>
          </mxGeometry>
        </mxCell>
        <mxCell id="X72S2jsAQp75nGiJENON-38" value="" style="endArrow=classic;html=1;rounded=0;" edge="1" parent="1">
          <mxGeometry width="50" height="50" relative="1" as="geometry">
            <mxPoint x="439.5" y="1580" as="sourcePoint" />
            <mxPoint x="439.5" y="1610" as="targetPoint" />
          </mxGeometry>
        </mxCell>
        <mxCell id="X72S2jsAQp75nGiJENON-39" value="&#39;Bu bir dik üçgen&#39;" style="shape=document;whiteSpace=wrap;html=1;boundedLbl=1;" vertex="1" parent="1">
          <mxGeometry x="520" y="1460" width="120" height="80" as="geometry" />
        </mxCell>
        <mxCell id="X72S2jsAQp75nGiJENON-40" value="&#39;Bu bir dik üçgen değil&#39;" style="shape=document;whiteSpace=wrap;html=1;boundedLbl=1;" vertex="1" parent="1">
          <mxGeometry x="240" y="1460" width="120" height="80" as="geometry" />
        </mxCell>
        <mxCell id="X72S2jsAQp75nGiJENON-41" value="" style="endArrow=classic;html=1;rounded=0;exitX=0.5;exitY=0.888;exitDx=0;exitDy=0;exitPerimeter=0;" edge="1" parent="1" source="X72S2jsAQp75nGiJENON-40">
          <mxGeometry width="50" height="50" relative="1" as="geometry">
            <mxPoint x="300" y="1540" as="sourcePoint" />
            <mxPoint x="440" y="1580" as="targetPoint" />
            <Array as="points">
              <mxPoint x="300" y="1580" />
            </Array>
          </mxGeometry>
        </mxCell>
        <mxCell id="X72S2jsAQp75nGiJENON-42" value="T" style="text;html=1;align=center;verticalAlign=middle;resizable=0;points=[];autosize=1;strokeColor=none;fillColor=none;" vertex="1" parent="1">
          <mxGeometry x="565" y="585" width="30" height="30" as="geometry" />
        </mxCell>
        <mxCell id="X72S2jsAQp75nGiJENON-43" value="F" style="text;html=1;align=center;verticalAlign=middle;resizable=0;points=[];autosize=1;strokeColor=none;fillColor=none;" vertex="1" parent="1">
          <mxGeometry x="285" y="585" width="30" height="30" as="geometry" />
        </mxCell>
        <mxCell id="X72S2jsAQp75nGiJENON-44" value="T" style="text;html=1;align=center;verticalAlign=middle;resizable=0;points=[];autosize=1;strokeColor=none;fillColor=none;" vertex="1" parent="1">
          <mxGeometry x="565" y="1360" width="30" height="30" as="geometry" />
        </mxCell>
        <mxCell id="X72S2jsAQp75nGiJENON-45" value="T" style="text;html=1;align=center;verticalAlign=middle;resizable=0;points=[];autosize=1;strokeColor=none;fillColor=none;" vertex="1" parent="1">
          <mxGeometry x="565" y="1100" width="30" height="30" as="geometry" />
        </mxCell>
        <mxCell id="X72S2jsAQp75nGiJENON-46" value="T" style="text;html=1;align=center;verticalAlign=middle;resizable=0;points=[];autosize=1;strokeColor=none;fillColor=none;" vertex="1" parent="1">
          <mxGeometry x="565" y="840" width="30" height="30" as="geometry" />
        </mxCell>
        <mxCell id="X72S2jsAQp75nGiJENON-47" value="F" style="text;html=1;align=center;verticalAlign=middle;resizable=0;points=[];autosize=1;strokeColor=none;fillColor=none;" vertex="1" parent="1">
          <mxGeometry x="285" y="1360" width="30" height="30" as="geometry" />
        </mxCell>
        <mxCell id="X72S2jsAQp75nGiJENON-48" value="F" style="text;html=1;align=center;verticalAlign=middle;resizable=0;points=[];autosize=1;strokeColor=none;fillColor=none;" vertex="1" parent="1">
          <mxGeometry x="285" y="1100" width="30" height="30" as="geometry" />
        </mxCell>
        <mxCell id="X72S2jsAQp75nGiJENON-49" value="F" style="text;html=1;align=center;verticalAlign=middle;resizable=0;points=[];autosize=1;strokeColor=none;fillColor=none;" vertex="1" parent="1">
          <mxGeometry x="285" y="840" width="30" height="30" as="geometry" />
        </mxCell>
        <mxCell id="X72S2jsAQp75nGiJENON-50" value="STOP" style="ellipse;whiteSpace=wrap;html=1;" vertex="1" parent="1">
          <mxGeometry x="380" y="1610" width="120" height="80" as="geometry" />
        </mxCell>
      </root>
    </mxGraphModel>
  </diagram>
</mxfile>
